<svg width="18" height="16" viewBox="0 0 18 16" fill="#cd5c08" xmlns="http://www.w3.org/2000/svg">
<path d="M3.3013 1.21414L3.43679 1.5H3.75312H16.5969C17.0906 1.5 17.4495 1.96946 17.3206 2.44392L17.3203 2.44502L16.0392 7.20373C15.8323 7.96805 15.1387 8.5 14.35 8.5H5.33437H4.73074L4.84312 9.09308L5.01186 9.98371L5.01234 9.98618C5.12655 10.5728 5.64052 11 6.24062 11H15.25C15.3895 11 15.5 11.1105 15.5 11.25C15.5 11.3895 15.3895 11.5 15.25 11.5H6.24062C5.39914 11.5 4.67787 10.9017 4.52257 10.0791L4.52243 10.0784L2.91048 1.61254C2.91036 1.61193 2.91025 1.61131 2.91013 1.61069C2.84279 1.25008 2.52856 1 2.17188 1H0.75C0.610517 1 0.5 0.889483 0.5 0.75C0.5 0.610517 0.610517 0.5 0.75 0.5H2.17188C2.6626 0.5 3.09812 0.785446 3.3013 1.21414ZM4.5 14.5C4.5 14.3687 4.52587 14.2386 4.57612 14.1173C4.62638 13.996 4.70003 13.8858 4.79289 13.7929C4.88575 13.7 4.99599 13.6264 5.11732 13.5761C5.23864 13.5259 5.36868 13.5 5.5 13.5C5.63132 13.5 5.76136 13.5259 5.88268 13.5761C6.00401 13.6264 6.11425 13.7 6.20711 13.7929C6.29997 13.8858 6.37362 13.996 6.42388 14.1173C6.47413 14.2386 6.5 14.3687 6.5 14.5C6.5 14.6313 6.47413 14.7614 6.42388 14.8827C6.37362 15.004 6.29997 15.1142 6.20711 15.2071C6.11425 15.3 6.00401 15.3736 5.88268 15.4239C5.76136 15.4741 5.63132 15.5 5.5 15.5C5.36868 15.5 5.23864 15.4741 5.11732 15.4239C4.99599 15.3736 4.88575 15.3 4.79289 15.2071C4.70003 15.1142 4.62638 15.004 4.57612 14.8827C4.52587 14.7614 4.5 14.6313 4.5 14.5ZM14.5 13.5C14.7652 13.5 15.0196 13.6054 15.2071 13.7929C15.3946 13.9804 15.5 14.2348 15.5 14.5C15.5 14.7652 15.3946 15.0196 15.2071 15.2071C15.0196 15.3946 14.7652 15.5 14.5 15.5C14.2348 15.5 13.9804 15.3946 13.7929 15.2071C13.6054 15.0196 13.5 14.7652 13.5 14.5C13.5 14.2348 13.6054 13.9804 13.7929 13.7929C13.9804 13.6054 14.2348 13.5 14.5 13.5Z" stroke="#D10B29"/>
</svg>
