<svg width="10" height="10" viewBox="0 0 10 10" fill="none" xmlns="http://www.w3.org/2000/svg">
<path d="M9.70664 1.70627C10.0973 1.31565 10.0973 0.681274 9.70664 0.290649C9.31602 -0.0999756 8.68164 -0.0999756 8.29102 0.290649L5.00039 3.5844L1.70664 0.293774C1.31602 -0.0968506 0.681641 -0.0968506 0.291016 0.293774C-0.0996094 0.684399 -0.0996094 1.31877 0.291016 1.7094L3.58477 5.00002L0.294141 8.29377C-0.0964843 8.6844 -0.0964843 9.31878 0.294141 9.7094C0.684766 10.1 1.31914 10.1 1.70977 9.7094L5.00039 6.41565L8.29414 9.70627C8.68477 10.0969 9.31914 10.0969 9.70977 9.70627C10.1004 9.31565 10.1004 8.68127 9.70977 8.29065L6.41602 5.00002L9.70664 1.70627Z" fill="black"/>
</svg>
