<svg width="872" height="872" viewBox="0 0 872 872" fill="none" xmlns="http://www.w3.org/2000/svg">
<circle cx="436" cy="436" r="436" fill="#66B2B2"/>
<mask id="mask0_42_4" style="mask-type:luminance" maskUnits="userSpaceOnUse" x="65" y="334" width="617" height="204">
<path d="M681.851 334.271H65V537.563H681.851V334.271Z" fill="white"/>
</mask>
<g mask="url(#mask0_42_4)">
<mask id="mask1_42_4" style="mask-type:luminance" maskUnits="userSpaceOnUse" x="65" y="334" width="617" height="204">
<path d="M681.851 334.271H65V537.563H681.851V334.271Z" fill="white"/>
</mask>
<g mask="url(#mask1_42_4)">
<mask id="mask2_42_4" style="mask-type:luminance" maskUnits="userSpaceOnUse" x="65" y="334" width="617" height="204">
<path d="M681.851 334.271H65V537.563H681.851V334.271Z" fill="white"/>
</mask>
<g mask="url(#mask2_42_4)">
<mask id="mask3_42_4" style="mask-type:luminance" maskUnits="userSpaceOnUse" x="65" y="359" width="488" height="154">
<path d="M552.104 359.302H65V512.531H552.104V359.302Z" fill="white"/>
</mask>
<g mask="url(#mask3_42_4)">
<mask id="mask4_42_4" style="mask-type:luminance" maskUnits="userSpaceOnUse" x="65" y="359" width="488" height="154">
<path d="M552.104 359.302H65V512.531H552.104V359.302Z" fill="white"/>
</mask>
<g mask="url(#mask4_42_4)">
<mask id="mask5_42_4" style="mask-type:luminance" maskUnits="userSpaceOnUse" x="65" y="359" width="488" height="154">
<path d="M552.104 359.302H65V512.531H552.104V359.302Z" fill="white"/>
</mask>
<g mask="url(#mask5_42_4)">
<mask id="mask6_42_4" style="mask-type:luminance" maskUnits="userSpaceOnUse" x="65" y="359" width="488" height="154">
<path d="M552.104 359.302H65V512.531H552.104V359.302Z" fill="white"/>
</mask>
<g mask="url(#mask6_42_4)">
<path d="M120.915 359.302C131.258 359.302 140.255 360.79 147.906 363.765C155.557 366.741 162.712 371.274 169.371 377.367L155.557 393.306C150.314 388.914 145.044 385.726 139.745 383.742C134.418 381.759 128.708 380.768 122.616 380.768C115.815 380.768 110.332 382.283 106.166 385.315C101.972 388.375 99.8765 392.668 99.8765 398.194C99.8765 401.878 100.697 404.924 102.341 407.332C103.956 409.741 106.889 412.008 111.139 414.133C115.39 416.258 121.695 418.597 130.054 421.146C144.506 425.68 155.387 431.305 162.698 438.021C169.98 444.766 173.621 454.583 173.621 467.476C173.621 476.26 171.397 484.053 166.948 490.854C162.471 497.654 156.053 502.967 147.693 506.793C139.334 510.618 129.416 512.531 117.94 512.531C106.747 512.531 96.7305 510.717 87.8895 507.09C79.0205 503.492 71.3975 498.575 65.0225 492.341L79.4735 476.19C85.1415 481.007 91.0205 484.648 97.1135 487.113C103.205 489.607 109.935 490.854 117.302 490.854C125.378 490.854 131.896 488.941 136.855 485.117C141.814 481.291 144.293 475.906 144.293 468.964C144.293 464.713 143.443 461.2 141.743 458.423C140.043 455.674 137.138 453.195 133.029 450.984C128.92 448.803 122.97 446.507 115.177 444.099C99.5925 439.282 88.3285 433.474 81.3865 426.673C74.4445 419.872 70.9725 410.945 70.9725 399.894C70.9725 391.818 73.0985 384.734 77.3485 378.642C81.5995 372.55 87.5215 367.803 95.1155 364.403C102.681 361.002 111.281 359.302 120.915 359.302ZM305.173 509.343H275.42L266.282 475.34H217.614L208.475 509.343H179.359L225.052 362.49H259.693L305.173 509.343ZM241.841 383.955L223.139 454.087H260.543L241.841 383.955ZM399.959 509.343L367.443 450.474H349.591V509.343H321.538V362.49H365.317C404.138 362.49 423.549 376.871 423.549 405.632C423.549 415.408 421.14 423.484 416.323 429.86C411.506 436.235 403.997 441.407 393.796 445.374L432.262 509.343H399.959ZM349.591 382.893V430.285H367.018C375.944 430.285 382.702 428.33 387.292 424.419C391.911 420.537 394.221 414.275 394.221 405.632C394.221 397.698 391.84 391.917 387.08 388.29C382.348 384.692 374.867 382.893 364.637 382.893H349.591ZM507.453 359.302C516.379 359.302 524.172 360.577 530.831 363.128C537.49 365.678 544.007 369.574 550.383 374.816L536.144 391.393C527.501 384.451 518.434 380.98 508.941 380.98C498.031 380.98 489.29 385.372 482.716 394.156C476.113 402.94 472.812 416.754 472.812 435.598C472.812 454.016 476.071 467.689 482.588 476.615C489.105 485.541 497.89 490.005 508.941 490.005C514.75 490.005 519.921 488.969 524.455 486.901C528.989 484.861 533.806 481.928 538.907 478.102L552.083 494.679C547.124 499.78 540.862 504.031 533.296 507.43C525.702 510.831 517.229 512.531 507.878 512.531C495.127 512.531 483.863 509.556 474.087 503.605C464.311 497.654 456.731 488.898 451.347 477.337C445.963 465.804 443.271 451.891 443.271 435.598C443.271 419.588 446.076 405.845 451.687 394.368C457.269 382.892 464.92 374.179 474.64 368.228C484.331 362.278 495.269 359.302 507.453 359.302Z" fill="#CD5C08"/>
</g>
</g>
</g>
</g>
<mask id="mask7_42_4" style="mask-type:luminance" maskUnits="userSpaceOnUse" x="588" y="334" width="94" height="204">
<path d="M681.852 334.271H588.278V537.563H681.852V334.271Z" fill="white"/>
</mask>
<g mask="url(#mask7_42_4)">
<mask id="mask8_42_4" style="mask-type:luminance" maskUnits="userSpaceOnUse" x="588" y="334" width="94" height="204">
<path d="M681.852 334.271H588.278V537.563H681.852V334.271Z" fill="white"/>
</mask>
<g mask="url(#mask8_42_4)">
<path d="M665.176 537.563L588.278 422.219H630.084L604.954 334.271L681.851 449.619H640.047L665.176 537.563Z" fill="#CD5C08"/>
</g>
</g>
</g>
</g>
</g>
<path d="M494.701 124C666.968 124 806.62 263.651 806.62 435.917C806.62 608.183 666.968 747.834 494.701 747.834C364.856 747.834 253.539 668.495 206.59 555.649H214.09C260.631 664.583 368.75 740.925 494.701 740.925C663.153 740.925 799.711 604.367 799.711 435.917C799.711 267.466 663.153 130.91 494.701 130.91C368.75 130.91 260.631 207.251 214.09 316.185H206.59C253.539 203.34 364.856 124 494.701 124Z" fill="#CD5C08"/>
</svg>
