<svg width="144" height="123" viewBox="0 0 144 123" fill="none" xmlns="http://www.w3.org/2000/svg">
<path d="M13.7285 72.1809L13.728 72.1804C5.28008 64.3254 0.5 53.3057 0.5 41.786V40.1567C0.5 20.7653 14.5259 4.23083 33.6634 1.04034C46.3293 -1.06816 59.2171 3.06569 68.2717 12.1095L71.6467 15.4806L72 15.8335L72.3533 15.4806L75.7283 12.1095C84.7829 3.06569 97.6707 -1.06816 110.337 1.04034C129.474 4.23083 143.5 20.7653 143.5 40.1567V41.786C143.5 53.3057 138.72 64.3254 130.272 72.1804L130.271 72.1809L79.4497 119.572C77.4332 121.452 74.7707 122.5 72 122.5C69.2293 122.5 66.5668 121.452 64.5503 119.572L13.7285 72.1809Z" fill="#D10B29" stroke="#D10B29"/>
</svg>
