<svg width="1000" height="624" viewBox="0 0 1000 624" fill="none" xmlns="http://www.w3.org/2000/svg">
<g clip-path="url(#clip0_36_4)">
<g clip-path="url(#clip1_36_4)">
<g clip-path="url(#clip2_36_4)">
<g clip-path="url(#clip3_36_4)">
<g clip-path="url(#clip4_36_4)">
<g clip-path="url(#clip5_36_4)">
<g clip-path="url(#clip6_36_4)">
<g clip-path="url(#clip7_36_4)">
<g clip-path="url(#clip8_36_4)">
<g clip-path="url(#clip9_36_4)">
<path d="M247.489 235.05C257.832 235.05 266.829 236.538 274.48 239.513C282.131 242.489 289.286 247.022 295.945 253.115L282.131 269.054C276.888 264.662 271.618 261.474 266.319 259.49C260.992 257.507 255.282 256.515 249.19 256.515C242.389 256.515 236.906 258.031 232.74 261.063C228.546 264.123 226.45 268.416 226.45 273.942C226.45 277.626 227.271 280.672 228.915 283.08C230.53 285.489 233.463 287.756 237.713 289.881C241.964 292.006 248.269 294.344 256.628 296.894C271.08 301.428 281.961 307.053 289.272 313.769C296.554 320.513 300.195 330.331 300.195 343.224C300.195 352.008 297.971 359.801 293.522 366.602C289.045 373.402 282.627 378.715 274.267 382.541C265.908 386.366 255.99 388.279 244.514 388.279C233.321 388.279 223.304 386.465 214.463 382.838C205.594 379.24 197.971 374.323 191.596 368.089L206.047 351.938C211.715 356.755 217.594 360.396 223.687 362.861C229.779 365.355 236.509 366.602 243.876 366.602C251.952 366.602 258.47 364.689 263.429 360.864C268.388 357.038 270.867 351.654 270.867 344.712C270.867 340.461 270.017 336.948 268.317 334.171C266.617 331.422 263.712 328.943 259.603 326.732C255.494 324.551 249.544 322.255 241.751 319.847C226.166 315.03 214.902 309.221 207.96 302.42C201.018 295.619 197.546 286.693 197.546 275.642C197.546 267.566 199.672 260.482 203.922 254.39C208.173 248.298 214.095 243.551 221.689 240.151C229.255 236.75 237.855 235.05 247.489 235.05ZM431.747 385.091H401.994L392.856 351.088H344.188L335.049 385.091H305.933L351.626 238.238H386.267L431.747 385.091ZM368.415 259.703L349.713 329.835H387.117L368.415 259.703ZM526.533 385.091L494.017 326.222H476.165V385.091H448.112V238.238H491.891C530.712 238.238 550.123 252.619 550.123 281.38C550.123 291.156 547.714 299.232 542.897 305.608C538.08 311.983 530.571 317.155 520.37 321.122L558.836 385.091H526.533ZM476.165 258.64V306.033H493.592C502.518 306.033 509.276 304.078 513.866 300.167C518.485 296.285 520.795 290.023 520.795 281.38C520.795 273.446 518.414 267.665 513.654 264.038C508.922 260.44 501.441 258.64 491.211 258.64H476.165ZM634.027 235.05C642.953 235.05 650.746 236.325 657.405 238.876C664.064 241.426 670.581 245.322 676.957 250.564L662.718 267.141C654.075 260.199 645.008 256.728 635.515 256.728C624.605 256.728 615.864 261.12 609.29 269.904C602.687 278.688 599.386 292.502 599.386 311.346C599.386 329.764 602.645 343.437 609.162 352.363C615.679 361.289 624.464 365.752 635.515 365.752C641.324 365.752 646.495 364.717 651.029 362.649C655.563 360.609 660.38 357.676 665.481 353.85L678.657 370.427C673.698 375.528 667.436 379.778 659.87 383.178C652.276 386.579 643.803 388.279 634.452 388.279C621.701 388.279 610.437 385.304 600.661 379.353C590.885 373.402 583.305 364.646 577.921 353.085C572.537 341.552 569.845 327.639 569.845 311.346C569.845 295.336 572.65 281.593 578.261 270.116C583.843 258.64 591.494 249.927 601.214 243.976C610.905 238.026 621.843 235.05 634.027 235.05Z" fill="#cd5c08"/>
</g>
</g>
</g>
</g>
<g clip-path="url(#clip10_36_4)">
<g clip-path="url(#clip11_36_4)">
<path d="M791.75 413.311L714.852 297.967H756.658L731.528 210.019L808.425 325.367H766.621L791.75 413.311Z" fill="#cd5c08"/>
</g>
</g>
</g>
</g>
</g>
<path d="M621.275 -0.252441C793.542 -0.252441 933.194 139.399 933.194 311.665C933.194 483.931 793.542 623.582 621.275 623.582C491.43 623.582 380.113 544.243 333.164 431.397H340.664C387.205 540.331 495.324 616.673 621.275 616.673C789.727 616.673 926.285 480.115 926.285 311.665C926.285 143.214 789.727 6.65718 621.275 6.65718C495.324 6.65718 387.205 82.9987 340.664 191.933H333.164C380.113 79.0871 491.43 -0.252441 621.275 -0.252441Z" fill="#cd5c08"/>
</g>
</g>
</g>
<defs>
<clipPath id="clip0_36_4">
<rect width="1000" height="623.33" fill="white"/>
</clipPath>
<clipPath id="clip1_36_4">
<rect width="998.141" height="623.835" fill="white" transform="translate(0.929688 -0.252441)"/>
</clipPath>
<clipPath id="clip2_36_4">
<rect width="998.141" height="623.835" fill="white" transform="translate(0.929688 -0.252441)"/>
</clipPath>
<clipPath id="clip3_36_4">
<rect width="616.851" height="203.292" fill="white" transform="translate(191.574 210.019)"/>
</clipPath>
<clipPath id="clip4_36_4">
<rect width="616.851" height="203.292" fill="white" transform="translate(191.574 210.019)"/>
</clipPath>
<clipPath id="clip5_36_4">
<rect width="616.851" height="203.292" fill="white" transform="translate(191.574 210.019)"/>
</clipPath>
<clipPath id="clip6_36_4">
<rect width="487.104" height="153.229" fill="white" transform="translate(191.574 235.05)"/>
</clipPath>
<clipPath id="clip7_36_4">
<rect width="487.104" height="153.229" fill="white" transform="translate(191.574 235.05)"/>
</clipPath>
<clipPath id="clip8_36_4">
<rect width="487.104" height="153.229" fill="white" transform="translate(191.574 235.05)"/>
</clipPath>
<clipPath id="clip9_36_4">
<rect width="487.104" height="153.229" fill="white" transform="translate(191.574 235.05)"/>
</clipPath>
<clipPath id="clip10_36_4">
<rect width="93.5733" height="203.292" fill="white" transform="translate(714.852 210.019)"/>
</clipPath>
<clipPath id="clip11_36_4">
<rect width="93.5733" height="203.292" fill="white" transform="translate(714.852 210.019)"/>
</clipPath>
</defs>
</svg>
