<svg width="742" height="624" viewBox="0 0 742 624" fill="none" xmlns="http://www.w3.org/2000/svg">
<mask id="mask0_40_5" style="mask-type:luminance" maskUnits="userSpaceOnUse" x="0" y="210" width="617" height="204">
<path d="M616.851 210.271H0V413.563H616.851V210.271Z" fill="white"/>
</mask>
<g mask="url(#mask0_40_5)">
<mask id="mask1_40_5" style="mask-type:luminance" maskUnits="userSpaceOnUse" x="0" y="210" width="617" height="204">
<path d="M616.851 210.271H0V413.563H616.851V210.271Z" fill="white"/>
</mask>
<g mask="url(#mask1_40_5)">
<mask id="mask2_40_5" style="mask-type:luminance" maskUnits="userSpaceOnUse" x="0" y="210" width="617" height="204">
<path d="M616.851 210.271H0V413.563H616.851V210.271Z" fill="white"/>
</mask>
<g mask="url(#mask2_40_5)">
<mask id="mask3_40_5" style="mask-type:luminance" maskUnits="userSpaceOnUse" x="0" y="235" width="488" height="154">
<path d="M487.104 235.302H0V388.531H487.104V235.302Z" fill="white"/>
</mask>
<g mask="url(#mask3_40_5)">
<mask id="mask4_40_5" style="mask-type:luminance" maskUnits="userSpaceOnUse" x="0" y="235" width="488" height="154">
<path d="M487.104 235.302H0V388.531H487.104V235.302Z" fill="white"/>
</mask>
<g mask="url(#mask4_40_5)">
<mask id="mask5_40_5" style="mask-type:luminance" maskUnits="userSpaceOnUse" x="0" y="235" width="488" height="154">
<path d="M487.104 235.302H0V388.531H487.104V235.302Z" fill="white"/>
</mask>
<g mask="url(#mask5_40_5)">
<mask id="mask6_40_5" style="mask-type:luminance" maskUnits="userSpaceOnUse" x="0" y="235" width="488" height="154">
<path d="M487.104 235.302H0V388.531H487.104V235.302Z" fill="white"/>
</mask>
<g mask="url(#mask6_40_5)">
<path d="M55.9155 235.302C66.2585 235.302 75.2555 236.79 82.9065 239.765C90.5575 242.741 97.7125 247.274 104.371 253.367L90.5575 269.306C85.3145 264.914 80.0445 261.726 74.7455 259.742C69.4185 257.759 63.7085 256.768 57.6165 256.768C50.8155 256.768 45.3325 258.283 41.1665 261.315C36.9725 264.375 34.8765 268.668 34.8765 274.194C34.8765 277.878 35.6975 280.924 37.3415 283.332C38.9565 285.741 41.8895 288.008 46.1395 290.133C50.3905 292.258 56.6955 294.596 65.0545 297.146C79.5065 301.68 90.3875 307.305 97.6985 314.021C104.98 320.765 108.621 330.583 108.621 343.476C108.621 352.26 106.397 360.053 101.948 366.854C97.4715 373.654 91.0535 378.967 82.6935 382.793C74.3345 386.618 64.4165 388.531 52.9405 388.531C41.7475 388.531 31.7305 386.717 22.8895 383.09C14.0205 379.492 6.39746 374.575 0.0224609 368.341L14.4735 352.19C20.1415 357.007 26.0205 360.648 32.1135 363.113C38.2055 365.607 44.9355 366.854 52.3025 366.854C60.3785 366.854 66.8965 364.942 71.8555 361.117C76.8145 357.291 79.2935 351.906 79.2935 344.964C79.2935 340.713 78.4435 337.2 76.7435 334.423C75.0435 331.674 72.1385 329.195 68.0295 326.984C63.9205 324.803 57.9705 322.507 50.1775 320.099C34.5925 315.282 23.3285 309.474 16.3865 302.673C9.44447 295.872 5.97247 286.945 5.97247 275.894C5.97247 267.818 8.09846 260.734 12.3485 254.642C16.5995 248.55 22.5215 243.803 30.1155 240.403C37.6815 237.002 46.2815 235.302 55.9155 235.302ZM240.173 385.343H210.42L201.282 351.34H152.614L143.475 385.343H114.359L160.052 238.49H194.693L240.173 385.343ZM176.841 259.955L158.139 330.087H195.543L176.841 259.955ZM334.959 385.343L302.443 326.474H284.591V385.343H256.538V238.49H300.317C339.138 238.49 358.549 252.871 358.549 281.632C358.549 291.408 356.14 299.484 351.323 305.86C346.506 312.235 338.997 317.407 328.796 321.374L367.262 385.343H334.959ZM284.591 258.893V306.285H302.018C310.944 306.285 317.702 304.33 322.292 300.419C326.911 296.537 329.221 290.275 329.221 281.632C329.221 273.698 326.84 267.917 322.08 264.29C317.348 260.692 309.867 258.893 299.637 258.893H284.591ZM442.453 235.302C451.379 235.302 459.172 236.577 465.831 239.128C472.49 241.678 479.007 245.574 485.383 250.816L471.144 267.393C462.501 260.451 453.434 256.98 443.941 256.98C433.031 256.98 424.29 261.372 417.716 270.156C411.113 278.94 407.812 292.754 407.812 311.598C407.812 330.016 411.071 343.689 417.588 352.615C424.105 361.541 432.89 366.005 443.941 366.005C449.75 366.005 454.921 364.969 459.455 362.901C463.989 360.861 468.806 357.928 473.907 354.102L487.083 370.679C482.124 375.78 475.862 380.03 468.296 383.43C460.702 386.831 452.229 388.531 442.878 388.531C430.127 388.531 418.863 385.556 409.087 379.605C399.311 373.654 391.731 364.898 386.347 353.337C380.963 341.804 378.271 327.891 378.271 311.598C378.271 295.588 381.076 281.845 386.687 270.368C392.269 258.892 399.92 250.179 409.64 244.228C419.331 238.278 430.269 235.302 442.453 235.302Z" fill="#CD5C08"/>
</g>
</g>
</g>
</g>
<mask id="mask7_40_5" style="mask-type:luminance" maskUnits="userSpaceOnUse" x="523" y="210" width="94" height="204">
<path d="M616.852 210.271H523.278V413.563H616.852V210.271Z" fill="white"/>
</mask>
<g mask="url(#mask7_40_5)">
<mask id="mask8_40_5" style="mask-type:luminance" maskUnits="userSpaceOnUse" x="523" y="210" width="94" height="204">
<path d="M616.852 210.271H523.278V413.563H616.852V210.271Z" fill="white"/>
</mask>
<g mask="url(#mask8_40_5)">
<path d="M600.176 413.563L523.278 298.219H565.084L539.954 210.271L616.851 325.619H575.047L600.176 413.563Z" fill="#CD5C08"/>
</g>
</g>
</g>
</g>
</g>
<path d="M429.701 0C601.968 0 741.62 139.651 741.62 311.917C741.62 484.183 601.968 623.834 429.701 623.834C299.856 623.834 188.539 544.495 141.59 431.649H149.09C195.631 540.583 303.75 616.925 429.701 616.925C598.153 616.925 734.711 480.367 734.711 311.917C734.711 143.466 598.153 6.90962 429.701 6.90962C303.75 6.90962 195.631 83.2511 149.09 192.185H141.59C188.539 79.3395 299.856 0 429.701 0Z" fill="#CD5C08"/>
</svg>
