<svg width="24" height="28" viewBox="0 0 24 28" fill="none" xmlns="http://www.w3.org/2000/svg">
<path d="M12 14C13.0609 14 14.0783 13.5786 14.8284 12.8284C15.5786 12.0783 16 11.0609 16 10C16 8.93913 15.5786 7.92172 14.8284 7.17157C14.0783 6.42143 13.0609 6 12 6C10.9391 6 9.92172 6.42143 9.17157 7.17157C8.42143 7.92172 8 8.93913 8 10C8 11.0609 8.42143 12.0783 9.17157 12.8284C9.92172 13.5786 10.9391 14 12 14ZM10.5719 15.5C7.49375 15.5 5 17.9937 5 21.0719C5 21.5844 5.41563 22 5.92813 22H18.0719C18.5844 22 19 21.5844 19 21.0719C19 17.9937 16.5063 15.5 13.4281 15.5H10.5719Z" fill="black"/>
</svg>
